<svg width="16" height="16" viewBox="0 0 16 16" fill="none" xmlns="http://www.w3.org/2000/svg">
<circle cx="8" cy="8" r="8" fill="#00aaff"/>
<path fill-rule="evenodd" clip-rule="evenodd" d="M11.9676 4.10186C12.2566 4.29086 12.3376 4.67786 12.1486 4.96686L7.89858 11.4669C7.84906 11.5426 7.78369 11.6067 7.70698 11.6547C7.63027 11.7027 7.54406 11.7334 7.45429 11.7448C7.36453 11.7562 7.27336 11.748 7.18708 11.7208C7.1008 11.6935 7.02147 11.6478 6.95458 11.5869L4.20458 9.08686C4.08192 8.97533 4.00858 8.81965 4.00071 8.65405C3.99283 8.48846 4.05106 8.32652 4.16258 8.20386C4.27411 8.08119 4.42979 8.00786 4.59538 7.99998C4.76098 7.9921 4.92292 8.05033 5.04558 8.16186L7.25358 10.1689L11.1026 4.28286C11.1933 4.14417 11.3354 4.04719 11.4976 4.01325C11.6598 3.97931 11.8289 4.01118 11.9676 4.10186Z" fill="#fff"/>
</svg>
