<svg width="30" height="30" viewBox="0 0 30 30" fill="none" xmlns="http://www.w3.org/2000/svg">
<path d="M22 26.59L19.41 24L18 25.41L22 29.41L30 21.41L28.59 20L22 26.59ZM15 22L12.861 20.987C12.0065 20.5799 11.2845 19.9396 10.7783 19.1398C10.2721 18.3401 10.0023 17.4135 10 16.467V10H20V16.468C19.9977 17.4145 19.7279 18.3411 19.2217 19.1408C18.7155 19.9406 17.9935 20.5809 17.139 20.988L15 22ZM12 12V16.468C12.0015 17.0357 12.1636 17.5913 12.4674 18.0708C12.7712 18.5503 13.2044 18.9342 13.717 19.178L15 19.786L16.283 19.179C16.7958 18.9351 17.2291 18.5511 17.5329 18.0714C17.8367 17.5917 17.9987 17.0358 18 16.468V12H12ZM3.12 16.656C3.40593 16.4627 3.63698 16.1988 3.79068 15.8898C3.94439 15.5808 4.01552 15.2373 3.99717 14.8926C3.97881 14.548 3.87159 14.214 3.68593 13.9231C3.50027 13.6322 3.24249 13.3942 2.93765 13.2324C2.63281 13.0706 2.29129 12.9905 1.9463 12.9997C1.60131 13.009 1.26459 13.1074 0.968873 13.2853C0.673161 13.4632 0.428522 13.7147 0.258744 14.0151C0.0889675 14.3156 -0.000169735 14.6549 2.42647e-07 15C2.42647e-07 15.789 0.46 16.464 1.124 16.79C1.45608 19.4239 2.53286 21.9084 4.22786 23.9517C5.92287 25.9949 8.16572 27.5121 10.693 28.325L11.307 26.421C9.16026 25.7314 7.25242 24.4485 5.80388 22.7206C4.35535 20.9927 3.42424 18.8902 3.12 16.656ZM28.877 13.21C28.5449 10.5761 27.4681 8.09156 25.7731 6.04831C24.0781 4.00505 21.8353 2.48789 19.308 1.675L18.694 3.579C20.8407 4.26859 22.7486 5.55146 24.1971 7.2794C25.6457 9.00734 26.5758 11.1098 26.88 13.344C26.5941 13.5373 26.363 13.8012 26.2093 14.1102C26.0556 14.4192 25.9845 14.7627 26.0028 15.1074C26.0212 15.452 26.1284 15.786 26.3141 16.0769C26.4997 16.3678 26.7575 16.6058 27.0624 16.7676C27.3672 16.9294 27.7087 17.0095 28.0537 17.0003C28.3987 16.991 28.7354 16.8926 29.0311 16.7147C29.3268 16.5368 29.5715 16.2853 29.7413 15.9849C29.911 15.6844 30.0002 15.3451 30 15C29.9998 14.6263 29.8943 14.2602 29.6957 13.9436C29.4971 13.6271 29.2134 13.3728 28.877 13.21ZM15 2.38507e-08C14.211 2.38507e-08 13.536 0.46 13.21 1.124C10.5762 1.456 8.09176 2.53263 6.04852 4.22745C4.00528 5.92227 2.48805 8.16491 1.675 10.692L3.579 11.308C4.26843 9.16107 5.55123 7.25302 7.27918 5.8043C9.00714 4.35558 11.1097 3.42532 13.344 3.121C13.5374 3.40674 13.8014 3.63759 14.1104 3.79112C14.4194 3.94464 14.7629 4.01561 15.1074 3.99713C15.452 3.97865 15.7859 3.87135 16.0767 3.68566C16.3675 3.49997 16.6053 3.2422 16.767 2.93741C16.9287 2.63262 17.0089 2.29118 16.9996 1.94627C16.9903 1.60136 16.892 1.26471 16.7141 0.969049C16.5363 0.673387 16.2849 0.428765 15.9846 0.258961C15.6842 0.0891575 15.345 -5.32552e-05 15 2.38507e-08Z" fill="#00AAFF"/>
</svg>
