<svg width="16" height="16" viewBox="0 0 16 16" fill="none" xmlns="http://www.w3.org/2000/svg">
<circle cx="8" cy="8" r="8" fill="#00AAFF"/>
<path d="M7.628 7.512H8.24C8.504 7.512 8.692 7.46 8.804 7.356C8.924 7.244 8.984 7.064 8.984 6.816V6.252C8.984 6.004 8.924 5.828 8.804 5.724C8.692 5.612 8.504 5.556 8.24 5.556H7.664C7.408 5.556 7.228 5.612 7.124 5.724C7.02 5.828 6.968 6.004 6.968 6.252V6.552C6.968 6.72 6.884 6.804 6.716 6.804H5.696C5.528 6.804 5.444 6.72 5.444 6.552V6.228C5.444 5.604 5.616 5.124 5.96 4.788C6.304 4.452 6.792 4.284 7.424 4.284H8.492C9.124 4.284 9.612 4.452 9.956 4.788C10.3 5.124 10.472 5.604 10.472 6.228V6.828C10.472 7.5 10.156 7.936 9.524 8.136C10.156 8.272 10.472 8.708 10.472 9.444V10.056C10.472 10.68 10.3 11.16 9.956 11.496C9.612 11.832 9.124 12 8.492 12H7.424C6.792 12 6.304 11.832 5.96 11.496C5.616 11.16 5.444 10.68 5.444 10.056V9.72C5.444 9.544 5.528 9.456 5.696 9.456H6.716C6.884 9.456 6.968 9.544 6.968 9.72V10.032C6.968 10.288 7.02 10.468 7.124 10.572C7.228 10.676 7.408 10.728 7.664 10.728H8.24C8.504 10.728 8.692 10.676 8.804 10.572C8.924 10.46 8.984 10.28 8.984 10.032V9.444C8.984 9.196 8.924 9.02 8.804 8.916C8.692 8.804 8.504 8.748 8.24 8.748H7.628C7.46 8.748 7.376 8.664 7.376 8.496V7.776C7.376 7.6 7.46 7.512 7.628 7.512Z" fill="#ffff"/>
</svg>
