<svg width="16" height="16" viewBox="0 0 16 16" fill="none" xmlns="http://www.w3.org/2000/svg">
<circle cx="8" cy="8" r="8" fill="#00AAFF"/>
<path d="M5.564 11.748V10.608C5.564 10.152 5.76 9.764 6.152 9.444L8.36 7.572C8.72 7.276 8.9 6.956 8.9 6.612V6.252C8.9 6.004 8.84 5.828 8.72 5.724C8.608 5.612 8.42 5.556 8.156 5.556H7.736C7.48 5.556 7.3 5.612 7.196 5.724C7.092 5.828 7.04 6.004 7.04 6.252V6.636C7.04 6.812 6.956 6.9 6.788 6.9H5.768C5.6 6.9 5.516 6.812 5.516 6.636V6.228C5.516 5.604 5.688 5.124 6.032 4.788C6.376 4.452 6.864 4.284 7.496 4.284H8.408C9.04 4.284 9.528 4.452 9.872 4.788C10.216 5.124 10.388 5.604 10.388 6.228V6.708C10.388 7.332 10.148 7.848 9.668 8.256L7.412 10.176C7.316 10.264 7.268 10.36 7.268 10.464V10.656H10.136C10.304 10.656 10.388 10.74 10.388 10.908V11.748C10.388 11.916 10.304 12 10.136 12H5.816C5.648 12 5.564 11.916 5.564 11.748Z" fill="#ffff"/>
</svg>
